<?xml version="1.0" encoding="utf-8"?>
<svg xmlns="http://www.w3.org/2000/svg" width="50px" height="50px" viewBox="0 0 156.499 145.634"><g transform="translate(-271.993 -324.223)"><g transform="translate(271.992 324.223)"><path d="M274.764,783.082a322.369,322.369,0,0,1,76.056-9.58,289.919,289.919,0,0,1,75.187,9.651l-.845,3.213.851-3.219a3.331,3.331,0,0,1,2.185,4.588l-29.882,82.449h.009a3.331,3.331,0,0,1-3.2,2.2H305.29a3.331,3.331,0,0,1-3.21-2.441L272.2,787.5l3.122-1.132-3.13,1.135a3.332,3.332,0,0,1,2.572-4.418Zm76.056-2.947a314.182,314.182,0,0,0-71.109,8.592l27.9,76.994h85.253l27.925-77.051a283.33,283.33,0,0,0-69.974-8.535Z" transform="translate(-271.992 -726.751)" fill="#54595f"/><path d="M720,390.818a3.33,3.33,0,1,0,6.66,0V355.856a25.055,25.055,0,0,1,24.973-24.973h0A25.055,25.055,0,0,1,776.6,355.856v34.962a3.33,3.33,0,1,0,6.66,0V355.856a31.717,31.717,0,0,0-31.633-31.633h0A31.717,31.717,0,0,0,720,355.856Z" transform="translate(-673.381 -324.223)" fill="#54595f"/><g transform="translate(42.422 60.102)"><path d="M687.427,901.824a7.75,7.75,0,1,1-5.48,2.27,7.75,7.75,0,0,1,5.48-2.27Zm3.125,4.624a4.421,4.421,0,1,0,1.294,3.125,4.421,4.421,0,0,0-1.294-3.125Z" transform="translate(-679.677 -901.824)" fill="#54595f"/><path d="M1227.125,901.824a7.75,7.75,0,1,1-5.48,2.27,7.75,7.75,0,0,1,5.48-2.27Zm3.125,4.624a4.42,4.42,0,1,0,1.294,3.125,4.42,4.42,0,0,0-1.294-3.125Z" transform="translate(-1163.217 -901.824)" fill="#54595f"/></g><g transform="translate(47.958 84.578)"><g transform="translate(27.125 1.726)"><path d="M1015.814,1234.695a1.657,1.657,0,0,0-2.237-2.445A81.928,81.928,0,0,0,999.7,1248.6a40.081,40.081,0,0,0-6.12,15.972,1.664,1.664,0,0,0,3.3.4,36.81,36.81,0,0,1,5.639-14.619,78.459,78.459,0,0,1,13.3-15.661Z" transform="translate(-993.563 -1223.68)" fill="#54595f"/><path d="M1185.491,1232.375a1.664,1.664,0,0,0-1.21,3.1c.014,0,4.877,1.874,5.889,6.369a9.426,9.426,0,0,1-1.532,7.686,1.661,1.661,0,1,0,2.588,2.081,12.952,12.952,0,0,0,2.182-10.5C1192.005,1234.876,1185.509,1232.383,1185.491,1232.375Z" transform="translate(-1163.489 -1224.079)" fill="#54595f"/><path d="M1056.13,1229.266a1.659,1.659,0,1,0,1.158-3.109c-.019-.007-6.505-2.5-11.719,1.193a12.959,12.959,0,0,0-5.407,9.265,1.661,1.661,0,1,0,3.317.169,9.416,9.416,0,0,1,4-6.729c3.763-2.664,8.635-.8,8.649-.789Z" transform="translate(-1035.311 -1217.868)" fill="#54595f"/><path d="M1076.757,1163.81a1.664,1.664,0,1,0,3.317-.26c0-.019-.509-6.763-5.414-9.057a10.112,10.112,0,0,0-9.324.7,1.663,1.663,0,1,0,1.821,2.783,6.633,6.633,0,0,1,6.1-.482C1076.389,1158.964,1076.756,1163.8,1076.757,1163.81Z" transform="translate(-1057.193 -1153.633)" fill="#54595f"/><path d="M1161.445,1233.157a1.659,1.659,0,1,0-2.913,1.587,8.486,8.486,0,0,1,.706,5.729,12.5,12.5,0,0,1-3.352,5.933,1.661,1.661,0,1,0,2.419,2.276,15.748,15.748,0,0,0,4.184-7.52,11.887,11.887,0,0,0-1.044-8.005Z" transform="translate(-1138.591 -1224.106)" fill="#54595f"/><path d="M1184.015,1226.257a1.658,1.658,0,0,0,1.821,2.77,1.943,1.943,0,0,1,.433-.191,6.881,6.881,0,0,1,3.474-.1,5.259,5.259,0,0,1,3.356,2.2,5.839,5.839,0,0,1,.654,1.37,1.658,1.658,0,1,0,3.148-1.04,9.153,9.153,0,0,0-1.031-2.151,8.5,8.5,0,0,0-5.411-3.623,10.345,10.345,0,0,0-5.229.194A5.218,5.218,0,0,0,1184.015,1226.257Z" transform="translate(-1163.528 -1217.799)" fill="#54595f"/></g><path d="M844.317,1201.532a1.661,1.661,0,1,0-2.679,1.964,78.506,78.506,0,0,1,9.96,17.962,36.826,36.826,0,0,1,2.652,15.451,1.663,1.663,0,1,0,3.317.247,40.073,40.073,0,0,0-2.861-16.856,81.874,81.874,0,0,0-10.39-18.768Z" transform="translate(-830.033 -1194.214)" fill="#54595f"/><path d="M761.162,1204.112a1.664,1.664,0,1,0-.572-3.278c-.02,0-6.88,1.171-9.483,7.01a12.946,12.946,0,0,0,.072,10.715,1.661,1.661,0,0,0,2.953-1.522,9.432,9.432,0,0,1,.006-7.841C756.013,1204.99,761.148,1204.115,761.162,1204.112Z" transform="translate(-748.203 -1194.175)" fill="#54595f"/><path d="M840.115,1199.9a1.661,1.661,0,0,0,.533,3.278c.015,0,5.151-.876,8.314,2.474a9.43,9.43,0,0,1,2.6,7.394,1.662,1.662,0,0,0,3.291.468,12.95,12.95,0,0,0-3.476-10.138C846.994,1198.73,840.135,1199.9,840.115,1199.9Z" transform="translate(-827.708 -1193.243)" fill="#54595f"/><path d="M840.07,1145.121a1.659,1.659,0,1,0,3.187.923c0-.013,1.317-4.686,4.68-5.507a6.633,6.633,0,0,1,5.89,1.668,1.66,1.66,0,0,0,2.328-2.367,10.112,10.112,0,0,0-9-2.526C841.9,1138.6,840.076,1145.1,840.07,1145.121Z" transform="translate(-828.858 -1137.049)" fill="#54595f"/><path d="M822.654,1203.556a1.662,1.662,0,0,0-2.549-2.133,11.885,11.885,0,0,0-2.592,7.648,15.74,15.74,0,0,0,2.619,8.194,1.662,1.662,0,0,0,2.823-1.756,12.506,12.506,0,0,1-2.124-6.478,8.485,8.485,0,0,1,1.823-5.475Z" transform="translate(-808.705 -1194.191)" fill="#54595f"/><path d="M744.392,1190.468a1.66,1.66,0,1,0,2.328-2.367,5.192,5.192,0,0,0-1.071-.794l-.826,1.444.826-1.446c-.043-.024-.086-.047-.129-.067a10.41,10.41,0,0,0-4.96-1.148,8.518,8.518,0,0,0-6.028,2.483l1.184,1.171-1.184-1.171q-.049.05-.093.1a9.189,9.189,0,0,0-1.339,1.809,1.66,1.66,0,1,0,2.887,1.639,5.886,5.886,0,0,1,.836-1.136c.026-.023.052-.047.077-.073h0a5.244,5.244,0,0,1,3.713-1.507,6.971,6.971,0,0,1,3.3.734q.043.028.089.054h0a2.017,2.017,0,0,1,.394.274Z" transform="translate(-732.882 -1180.985)" fill="#54595f"/></g><path d="M600.361,1557.621a1.659,1.659,0,0,0,1.782,2.8,62.51,62.51,0,0,1,18.472-7.5,100.5,100.5,0,0,1,46.882.154,60.721,60.721,0,0,1,18.686,7.876,1.659,1.659,0,1,0,1.847-2.757,64,64,0,0,0-19.714-8.344,103.645,103.645,0,0,0-48.5-.154,65.806,65.806,0,0,0-19.461,7.924Z" transform="translate(-565.505 -1419.672)" fill="#54595f"/></g></g></svg>
