<?xml version="1.0" encoding="utf-8"?>
<svg xmlns="http://www.w3.org/2000/svg" width="50px" height="50px" viewBox="0 0 394.742 470.162"><g transform="translate(-379.2 -256.059)"><path d="M554.566,317.366a175.37,175.37,0,1,1-124,51.365,174.816,174.816,0,0,1,124-51.365Zm110.151,65.216a155.778,155.778,0,1,0,45.625,110.151,155.778,155.778,0,0,0-45.625-110.151Z" transform="translate(0 -42.54)" fill="#54595f"/><path d="M773.731,257.227a9.775,9.775,0,1,0-9.26,17.219,199.763,199.763,0,1,1-204.5,342.8,9.785,9.785,0,1,0-10.714,16.377,219.324,219.324,0,1,0,224.473-376.4Z" transform="translate(-114.93)" fill="#54595f"/><path d="M583.919,636.479a9.753,9.753,0,0,0,16.912,9.719l20.546-35.587a9.753,9.753,0,1,0-16.912-9.719Zm186.14-322.444a9.772,9.772,0,1,0,16.912,9.8l20.547-35.588a9.772,9.772,0,0,0-16.912-9.8Z" transform="translate(-141.152 -12.151)" fill="#54595f"/><path d="M1011.591,1552.6a9.8,9.8,0,0,0-19.591,0v46.09a9.8,9.8,0,0,0,19.591,0Z" transform="translate(-425.217 -892.86)" fill="#54595f"/><path d="M759.411,1728a9.8,9.8,0,0,0,0,19.591H907.8a9.8,9.8,0,1,0,0-19.591Z" transform="translate(-257.029 -1021.369)" fill="#54595f"/><path d="M613.922,342.527a9.771,9.771,0,1,0-19.208-3.6,124.093,124.093,0,0,0-2.069,22.241c-.19,8.781-.272,12.536-16.283,20.007-12.308,5.743-12.025,13.3-7.654,22.669.832,1.783,1.843,3.542,2.919,5.412,2.584,4.491,5.762,10.016,3.91,14.709h0a9.784,9.784,0,0,0-.686,3.3c-1.964,16.894,3.581,21.98,11.88,29.586,6.647,6.093,16.051,14.714,22.56,44.532,2.463,11.286,2.464,18.982,1.437,25.357-5.882-10.57-13.575-18.407-21.161-20.013-23.687-5.013-23.573-6.7-23.362-9.808.349-5.129.773-11.361-3.128-19.963-.313-.691-10.054-14.637-19.454-23.53-6.068-5.74-12.7-10.069-18.87-10.069-3.056,0-7.629.189-12.55.392-20.43.843-48.361,2-55.847-12.852a9.771,9.771,0,0,0-17.448,8.8c13.149,26.08,48.329,24.628,74.06,23.566,3.959-.163,7.639-.315,11.785-.315.433,0,2.685,1.993,5.477,4.635A132.015,132.015,0,0,1,545.241,485c1.884,4.155,1.643,7.705,1.444,10.626-.959,14.09-1.478,21.711,38.82,30.241,2.44.516,6.253,6.127,9.881,13.778,4.148,8.748,7.1,19.468,7.1,28.854h19.591c0-10.538,2.182-17.491,4.274-24.16,3.753-11.961,7.275-23.189,2.062-47.079-7.812-35.8-19.949-46.923-28.529-54.787-3.734-3.424-6.275-5.755-5.694-12.5,4.5-12.778-1.088-22.492-5.655-30.432-.4-.694-.787-1.368-1.141-2.007,24.233-11.812,24.4-19.289,24.762-35.98a106.379,106.379,0,0,1,1.762-19.027Z" transform="translate(-40.699 -51.97)" fill="#54595f"/><path d="M1188.613,878.5a9.754,9.754,0,0,0,17.448-8.724c-3.1-6.2,1.087-19.731,5.386-33.635,6.547-21.175,13.3-43.017.329-58.286-.7-.819-.482-3.612-.229-6.921.834-10.889,1.88-24.557-15.743-41.733-1.146-1.116.7-11.936,1.549-20.781,7.952,1.7,11.908,5.474,14.927,8.353,10.882,10.384,16.333,15.585,38.715-7.109,2.226-2.257,3.959-3.934,5.44-5.368a111.891,111.891,0,0,0,12.581-14,9.783,9.783,0,1,0-15.382-12.091,96.083,96.083,0,0,1-10.819,12.086c-1.524,1.476-3.306,3.2-5.747,5.675-8.866,8.99-9.685,8.209-11.318,6.65-6.374-6.081-15.388-14.683-37.7-14.683a9.8,9.8,0,0,0-9.8,9.8c0,2.84-.014,3.53-.031,4.492-.211,11.637-.661,36.479,3.962,40.985,11.038,10.758,10.377,19.394,9.85,26.274-.584,7.629-1.077,14.062,4.821,21,6.059,7.132.912,23.78-4.078,39.919-5.462,17.667-10.779,34.866-4.161,48.1Z" transform="translate(-554.352 -290.328)" fill="#54595f"/><path d="M621.761,1144.457a9.789,9.789,0,1,0,19.361,2.908q.122-.8.311-2.917c.986-11.035-.748-31.323-6.061-49.161-5.616-18.85-15.447-35.614-30.909-39.58-1.341-1.637-2.915-3.421-4.592-5.237-5.494-5.952-12.946-13.62-14.393-14.943l-6.581,7.193,6.609-7.23a9.8,9.8,0,0,0-10.215-1.879c-7.693,2.737-9.506,6.117-11.37,9.6-.755,1.41-1.557,2.908-29.53,5.192-19.591,1.6-22.338,13.859-24.783,24.776-.568,2.534-1.06,4.862-1.078,4.875a9.788,9.788,0,1,0,11.709,15.689c5.717-4.273,7.021-10.091,8.424-16.354.954-4.26,2.026-9.043,7.258-9.47,30.077-2.458,38.784-6.867,42.684-11.536,2.188,2.3,4.644,4.91,6.877,7.329,2.439,2.642,3.8,2.719,4.232,3.524a9.8,9.8,0,0,0,8.594,7.222l.871-9.757-.842,9.719c.206.018-.033.015.506.1,7.806,1.194,13.767,12.9,17.778,26.359,4.634,15.555,6.189,32.755,5.373,41.892-.022.248-.1.818-.235,1.692Z" transform="translate(-87.012 -539.061)" fill="#54595f"/></g></svg>
