<svg fill="none" xmlns="http://www.w3.org/2000/svg" viewBox="0 0 25 24"><g clip-path="url(#a)"><path d="M3.64 22h17.33c.74 0 1.34-.6 1.34-1.33V5c0-.73-.6-1.33-1.34-1.33h-2.02V2.67c0-.37-.3-.67-.67-.67h-1.85c-.37 0-.67.3-.67.67v1.01h-6.9V2.67c0-.37-.3-.67-.67-.67H6.34c-.37 0-.67.3-.67.67v1.01H3.64c-.73 0-1.33.6-1.33 1.33v15.66c0 .73.6 1.33 1.33 1.33ZM16.42 2.67h1.85v2.69h-1.85v-2.7Zm-10.09 0H8.2v2.69H6.33v-2.7ZM2.97 5c0-.36.3-.66.67-.66h2.03v1.01c0 .37.3.67.66.67H8.2c.36 0 .66-.3.66-.67V4.35h6.9v1.01c0 .37.3.67.67.67h1.85c.37 0 .67-.3.67-.67V4.35h2.03c.36 0 .66.3.66.66v2.87H2.97V5.01Zm0 3.54h18.67v12.12c0 .36-.3.66-.67.66H3.64a.67.67 0 0 1-.67-.66V8.55Z" fill="#fff"/><rect x="5.3" y="10.43" width="2" height="2" rx=".2" fill="#FEDC07"/><rect x="9.3" y="10.43" width="2" height="2" rx=".2" fill="#FEDC07"/><rect x="13.31" y="10.43" width="2" height="2" rx=".2" fill="#FEDC07"/><rect x="17.31" y="10.43" width="2" height="2" rx=".2" fill="#FEDC07"/><rect x="5.3" y="14" width="2" height="2" rx=".2" fill="#FEDC07"/><rect x="9.3" y="14" width="2" height="2" rx=".2" fill="#FEDC07"/><rect x="13.31" y="14" width="2" height="2" rx=".2" fill="#fff"/><rect x="17.31" y="14" width="2" height="2" rx=".2" fill="#fff"/><rect x="5.3" y="17.5" width="2" height="2" rx=".2" fill="#fff"/><rect x="9.3" y="17.5" width="2" height="2" rx=".2" fill="#fff"/><rect x="13.31" y="17.5" width="2" height="2" rx=".2" fill="#fff"/><rect x="17.31" y="17.5" width="2" height="2" rx=".2" fill="#fff"/><rect x="16.31" y="16" width="8" height="8" rx="4" fill="#FEDC07"/><path d="M20.65 22.07c-.4 0-.77-.09-1.1-.26a1.99 1.99 0 0 1-1.03-1.8c0-.4.1-.75.28-1.07.18-.32.43-.56.76-.74.32-.18.69-.27 1.1-.27.4 0 .74.1 1.01.28.27.18.49.42.65.7l-.73.36c-.09-.17-.22-.3-.39-.41a.97.97 0 0 0-.55-.17 1.23 1.23 0 0 0-1.1.64c-.1.2-.15.42-.15.67 0 .25.05.48.16.68.1.2.26.36.45.47.2.11.4.17.64.17a1.07 1.07 0 0 0 .94-.58l.73.35a2.1 2.1 0 0 1-.65.7c-.27.19-.61.28-1.02.28Zm-2.35-1.43v-.45h2.72v.45H18.3Zm0-.84v-.45h2.72v.45H18.3Z" fill="#1A73E8"/></g><defs><clipPath id="a"><path fill="#fff" transform="translate(.3)" d="M0 0h24v24H0z"/></clipPath></defs></svg>
